<svg xmlns="http://www.w3.org/2000/svg" xmlns:xlink="http://www.w3.org/1999/xlink" width="419" height="198.303" viewBox="0 0 419 198.303">
  <defs>
    <clipPath id="clip-path">
      <rect id="Rectangle_2218" data-name="Rectangle 2218" width="419" height="198.303" fill="none"/>
    </clipPath>
  </defs>
  <g id="google_workspace" data-name="google workspace" transform="translate(209.5 99.152)">
    <g id="google_workspace-2" data-name="google workspace" transform="translate(-209.5 -99.152)">
      <path id="Path_10240" data-name="Path 10240" d="M70.972,52.2,58.188,102.454h-.441L43.862,60.8H36.368L22.482,102.454h-.441L8.6,52.2H0l17.853,63.919h8.376l13.665-42.1h.441L54,116.119h8.376L79.568,52.2Z" transform="translate(0 62.854)" fill="#5f6368"/>
      <g id="Group_7129" data-name="Group 7129" clip-path="url(#clip-path)">
        <path id="Path_10241" data-name="Path 10241" d="M35.709,84.072A22.923,22.923,0,0,1,42.1,67.321a21.6,21.6,0,0,1,16.09-6.612,20.939,20.939,0,0,1,16.09,6.612,24.686,24.686,0,0,1,0,33.282,21.38,21.38,0,0,1-16.09,6.612A21.38,21.38,0,0,1,42.1,100.6a22.923,22.923,0,0,1-6.392-16.751m8.155,0a15.87,15.87,0,0,0,4.188,11.461,13.864,13.864,0,0,0,20.278,0,16.09,16.09,0,0,0,4.188-11.461,15.87,15.87,0,0,0-4.188-11.241,13.886,13.886,0,0,0-20.5,0,15.649,15.649,0,0,0-4.188,11.241" transform="translate(42.978 73.081)" fill="#5f6368"/>
        <path id="Path_10242" data-name="Path 10242" d="M66.955,105.766H58.8V62.125h7.935v7.053h.441a12.122,12.122,0,0,1,5.069-5.951A14.106,14.106,0,0,1,79.959,60.8a15.649,15.649,0,0,1,6.171,1.1L83.486,69.84a12.783,12.783,0,0,0-4.849-.661,10.8,10.8,0,0,0-8.155,3.747,12.564,12.564,0,0,0-3.527,8.816v24.025Z" transform="translate(70.801 73.207)" fill="#5f6368"/>
        <path id="Path_10243" data-name="Path 10243" d="M111.372,116.119h-9.918l-13.665-20.5-6.833,6.392v14.106H72.8V52.2h8.155V91.433L99.91,72.478h10.58v.22L93.519,89.67l17.853,26.008Z" transform="translate(87.659 62.854)" fill="#5f6368"/>
        <path id="Path_10244" data-name="Path 10244" d="M126.268,93.7a11.9,11.9,0,0,1-5.069,9.7,21.6,21.6,0,0,1-24.245.441A18.735,18.735,0,0,1,89.9,94.8l7.274-3.086a13.886,13.886,0,0,0,4.629,6.171,11.021,11.021,0,0,0,6.833,2.2,11.461,11.461,0,0,0,6.612-1.763,4.849,4.849,0,0,0,2.645-3.967c0-2.865-2.2-4.849-6.392-6.171l-7.494-1.984C95.631,84,91.222,79.816,91.222,73.865a11.241,11.241,0,0,1,4.849-9.478,22.261,22.261,0,0,1,22.923-.882,15.208,15.208,0,0,1,6.612,7.274l-7.274,3.086a9.478,9.478,0,0,0-4.188-4.408,12.564,12.564,0,0,0-6.392-1.543,10.8,10.8,0,0,0-5.731,1.543,4.629,4.629,0,0,0-2.645,3.967c0,2.425,2.425,4.188,7.053,5.29l6.612,1.763c8.6,2.2,13,6.612,13,13.225" transform="translate(108.249 73.149)" fill="#5f6368"/>
        <path id="Path_10245" data-name="Path 10245" d="M131.943,107.351a19.4,19.4,0,0,1-8.816-2.2,15.429,15.429,0,0,1-6.171-5.51h-.441l.441,6.171v19.4H108.8V62.167h7.935v6.171h.441a15.649,15.649,0,0,1,6.171-5.51,19.4,19.4,0,0,1,23.363,4.629,24.025,24.025,0,0,1,6.172,16.531,23.584,23.584,0,0,1-6.172,16.531,18.735,18.735,0,0,1-14.767,6.833m-1.322-7.494a12.784,12.784,0,0,0,9.918-4.408,17.853,17.853,0,0,0,0-22.7,12.784,12.784,0,0,0-9.918-4.408,13,13,0,0,0-9.918,4.408,18.294,18.294,0,0,0,0,22.7,13.225,13.225,0,0,0,9.918,4.408" transform="translate(131.007 73.165)" fill="#5f6368"/>
        <path id="Path_10246" data-name="Path 10246" d="M149.6,60.716a20.719,20.719,0,0,1,14.327,4.849,16.972,16.972,0,0,1,5.29,13.445V105.9h-7.935V99.728h-.441a15.649,15.649,0,0,1-13.665,7.494,17.853,17.853,0,0,1-12.123-4.188,13.665,13.665,0,0,1-4.849-10.8,13.225,13.225,0,0,1,5.069-10.8,22.041,22.041,0,0,1,13.665-3.967,24.466,24.466,0,0,1,12.123,2.645V78.128a9.478,9.478,0,0,0-3.306-7.274,11.682,11.682,0,0,0-7.935-3.086A12.784,12.784,0,0,0,138.8,73.5l-6.833-4.408A20.5,20.5,0,0,1,149.6,60.716m-10.58,31.739a6.612,6.612,0,0,0,2.645,5.29,9.918,9.918,0,0,0,6.392,2.2,13,13,0,0,0,9.257-3.747,12.343,12.343,0,0,0,4.188-9.037,16.972,16.972,0,0,0-10.8-3.086,14.547,14.547,0,0,0-8.376,2.424,6.833,6.833,0,0,0-3.306,5.951" transform="translate(156.771 73.073)" fill="#5f6368"/>
        <path id="Path_10247" data-name="Path 10247" d="M172.891,107.433a21.38,21.38,0,0,1-16.09-6.612,23.8,23.8,0,0,1-6.392-16.751A22.923,22.923,0,0,1,156.8,67.318a21.6,21.6,0,0,1,16.09-6.612,20.057,20.057,0,0,1,11.682,3.306,20.719,20.719,0,0,1,7.494,9.257l-7.494,3.086A12.343,12.343,0,0,0,172.45,68.2a12.784,12.784,0,0,0-9.7,4.629,17.633,17.633,0,0,0,0,22.482,13.445,13.445,0,0,0,22.482-3.747l7.274,3.086a19.4,19.4,0,0,1-7.494,9.257,20.278,20.278,0,0,1-11.9,3.527" transform="translate(181.089 73.084)" fill="#5f6368"/>
        <path id="Path_10248" data-name="Path 10248" d="M192.768,107.488a20.5,20.5,0,0,1-15.87-6.612,23.143,23.143,0,0,1-6.392-16.751,23.8,23.8,0,0,1,6.172-16.751,21.821,21.821,0,0,1,31.078-.441c3.747,4.188,5.731,10.139,5.731,17.633v1.1H179.1a14.327,14.327,0,0,0,4.188,10.359,13.886,13.886,0,0,0,22.041-3.967l7.274,3.527a22.041,22.041,0,0,1-8.155,8.6,23.8,23.8,0,0,1-11.9,3.086M179.323,78.615h25.347a11.02,11.02,0,0,0-3.747-7.494,12.784,12.784,0,0,0-9.037-3.086,11.9,11.9,0,0,0-7.935,2.865,13.224,13.224,0,0,0-4.408,7.714" transform="translate(205.293 73.028)" fill="#5f6368"/>
        <path id="Path_10249" data-name="Path 10249" d="M67.129,42.982V33.064h33.062a33.943,33.943,0,0,1,.441,6.171c0,7.274-1.984,16.531-8.6,23.143A33.062,33.062,0,0,1,66.688,72.517,36.809,36.809,0,0,1,30.1,36.149,36.588,36.588,0,0,1,66.909,0,34.384,34.384,0,0,1,91.594,9.921l-7.053,7.053A25.127,25.127,0,0,0,66.688,9.921,26.008,26.008,0,0,0,40.68,36.37,26.008,26.008,0,0,0,66.688,62.819a24.245,24.245,0,0,0,18.294-7.494,20.5,20.5,0,0,0,5.29-12.343Z" transform="translate(36.244 -0.002)" fill="#4285f4"/>
        <path id="Path_10250" data-name="Path 10250" d="M110.527,35.064A23.364,23.364,0,1,1,87.164,11.7a23.364,23.364,0,0,1,23.364,23.364m-10.139,0a13.225,13.225,0,1,0-26.229,0,13.225,13.225,0,1,0,26.229,0" transform="translate(76.822 14.088)" fill="#ea4335"/>
        <path id="Path_10251" data-name="Path 10251" d="M133.747,35.124A23.474,23.474,0,1,1,110.274,11.65a23.474,23.474,0,0,1,23.474,23.474m-10.139,0a13.225,13.225,0,1,0-26.229,0,13.225,13.225,0,1,0,26.229,0" transform="translate(104.516 14.028)" fill="#fbbc04"/>
        <path id="Path_10252" data-name="Path 10252" d="M155.225,13.145V55.023c0,17.192-10.139,24.245-22.041,24.245A22.261,22.261,0,0,1,112.465,65.6l9.037-3.747a12.784,12.784,0,0,0,11.682,8.376c7.714,0,12.563-4.849,12.563-13.665V53.039h-.441a15.869,15.869,0,0,1-12.343,5.29,23.364,23.364,0,0,1,0-46.727,16.31,16.31,0,0,1,12.343,5.29h.441V12.924h9.7Zm-9.037,22.041c0-8.155-5.51-14.327-12.563-14.327s-13,5.951-13,14.327a13.445,13.445,0,0,0,13,14.106c7.053,0,12.563-5.951,12.563-14.106" transform="translate(131.97 13.966)" fill="#4285f4"/>
        <rect id="Rectangle_2217" data-name="Rectangle 2217" width="10.139" height="68.261" transform="translate(294.468 2.645)" fill="#34a853"/>
        <path id="Path_10253" data-name="Path 10253" d="M175.007,42.778l7.935,5.29a23.153,23.153,0,0,1-42.539-13c0-13.886,9.919-23.364,22.041-23.364s18.074,9.7,20.057,14.768l1.1,2.645L152.525,41.9a11.9,11.9,0,0,0,11.241,7.053,13,13,0,0,0,11.461-6.392M150.762,34.4l20.939-8.6a9.037,9.037,0,0,0-8.6-4.849,12.784,12.784,0,0,0-12.123,13.665" transform="translate(169.054 14.088)" fill="#ea4335"/>
      </g>
    </g>
  </g>
</svg>
